<?xml version="1.0" encoding="UTF-8"?><svg xmlns="http://www.w3.org/2000/svg" viewBox="0 0 183.97 138.53"><defs><style>.d{fill:#ff647d;}</style></defs><g id="a"/><g id="b"><g id="c"><g><path class="d" d="M35.04,25.85c-14.49,0-26.28,11.79-26.28,26.28v13.82H0v17.53H8.76v28.77H26.28v-28.77h8.76v-17.53h-8.76v-13.82c0-4.83,3.93-8.76,8.76-8.76s8.76,3.93,8.76,8.76h17.53c0-14.49-11.79-26.28-26.28-26.28Z"/><rect class="d" x="43.79" y="65.95" width="17.53" height="46.29"/><rect class="d" x="70.08" y="25.9" width="17.53" height="86.35"/><rect class="d" x="96.37" y="25.9" width="17.53" height="86.35"/><rect class="d" x="122.65" y="26.29" width="17.52" height="46.29"/><path class="d" d="M183.97,55.06h-8.76V26.29h-17.52v28.77h-8.76v17.53h8.76v13.82c0,4.83-3.93,8.76-8.76,8.76s-8.76-3.93-8.76-8.76h-17.53c0,14.49,11.79,26.28,26.28,26.28s26.28-11.79,26.28-26.28v-13.82h8.76v-17.53Z"/><path class="d" d="M131.42,17.52c4.84,0,8.76-3.92,8.76-8.76s-3.92-8.76-8.76-8.76-8.76,3.92-8.76,8.76,3.92,8.76,8.76,8.76Z"/><path class="d" d="M51.79,121.01c-4.84,0-8.76,3.92-8.76,8.76s3.92,8.76,8.76,8.76,8.76-3.92,8.76-8.76-3.92-8.76-8.76-8.76Z"/></g></g></g></svg>