<svg width="24" height="18" viewBox="0 0 24 18" fill="none" xmlns="http://www.w3.org/2000/svg">
<path d="M4.57118 3.35884C2.68087 3.35884 1.14279 4.89078 1.14279 6.77355V8.56926H0V10.847H1.14279V14.5853H3.42838V10.847H4.57118V8.56926H3.42838V6.77355C3.42838 6.14596 3.94108 5.63531 4.57118 5.63531C5.20128 5.63531 5.71397 6.14596 5.71397 6.77355H8.00087C8.00087 4.89078 6.46279 3.35884 4.57248 3.35884H4.57118Z" fill="#FF647D"/>
<path d="M7.99957 8.56926H5.71267V14.584H7.99957V8.56926Z" fill="#FF647D"/>
<path d="M11.4293 3.36534H9.14236V14.5853H11.4293V3.36534Z" fill="#FF647D"/>
<path d="M14.8589 3.36534H12.5721V14.5853H14.8589V3.36534Z" fill="#FF647D"/>
<path d="M18.286 3.41601H16.0004V9.43074H18.286V3.41601Z" fill="#FF647D"/>
<path d="M24 7.15426H22.8572V3.41601H20.5716V7.15426H19.4288V9.43204H20.5716V11.2277C20.5716 11.8553 20.0589 12.366 19.4288 12.366C18.7987 12.366 18.286 11.8553 18.286 11.2277H15.9991C15.9991 13.1105 17.5372 14.6425 19.4275 14.6425C21.3178 14.6425 22.8559 13.1105 22.8559 11.2277V9.43204H23.9987V7.15426H24Z" fill="#FF647D"/>
<path d="M17.1445 2.27647C17.7759 2.27647 18.2873 1.76713 18.2873 1.13824C18.2873 0.509348 17.7759 0 17.1445 0C16.5131 0 16.0017 0.509348 16.0017 1.13824C16.0017 1.76713 16.5131 2.27647 17.1445 2.27647Z" fill="#FF647D"/>
<path d="M6.75632 15.7235C6.12491 15.7235 5.61352 16.2329 5.61352 16.8618C5.61352 17.4907 6.12491 18 6.75632 18C7.38773 18 7.89911 17.4907 7.89911 16.8618C7.89911 16.2329 7.38773 15.7235 6.75632 15.7235Z" fill="#FF647D"/>
</svg>
